<svg width="58" height="78" viewBox="0 0 58 78" fill="none" xmlns="http://www.w3.org/2000/svg">
<circle cx="29" cy="28" r="9.5" stroke="black" stroke-width="5"/>
<path d="M53.846 37.2099C49.0042 52.3885 37.1453 67.441 30.3532 74.608C29.6087 75.3936 28.3717 75.4106 27.6065 74.6452C16.2584 63.2943 8.49771 47.6942 4.74666 37.9787C3.48596 34.7134 3 31.2204 3 27.7202C3 24.9168 3.23907 22.0809 4.28397 19.4795C9.55392 6.35963 22.6101 2.65214 29 2.5C42.1142 2.81986 49.7079 11.6868 53.1618 18.721C54.6632 21.7787 55 25.2253 55 28.6317C55 31.5348 54.7282 34.4441 53.846 37.2099Z" stroke="black" stroke-width="5"/>
</svg>
