<svg width="74" height="74" viewBox="0 0 74 74" fill="none" xmlns="http://www.w3.org/2000/svg">
<circle cx="37" cy="37" r="13.5" stroke="black" stroke-width="5"/>
<path d="M29.0571 3H44.5C45.0523 3 45.4979 3.45726 45.5178 4.00918C45.9862 16.9858 55.5811 15.3124 61.1473 12.463C61.6294 12.2162 62.2254 12.3677 62.5084 12.8295L70.9303 26.5705C71.2367 27.0704 71.0406 27.7276 70.5264 28.0093C58.9104 34.3739 65.249 41.9411 70.6492 45.4717C71.1127 45.7748 71.2701 46.3871 70.9874 46.8634L62.4862 61.1812C62.2139 61.6397 61.621 61.7973 61.1424 61.562C48.9951 55.5903 45.6987 64.0656 45.5031 69.9737C45.4845 70.5365 45.035 71 44.4718 71H29C28.4477 71 28.002 70.5427 27.9827 69.9908C27.5304 57.0664 18.2992 58.6744 12.8923 61.5026C12.3948 61.7628 11.7734 61.5971 11.4981 61.1078L3.52108 46.9264C3.23858 46.4241 3.44625 45.786 3.95439 45.5143C15.2374 39.4806 9.04217 31.7122 3.79585 28.0323C3.35665 27.7242 3.21274 27.1336 3.48212 26.6697L11.5172 12.8316C11.7868 12.3671 12.384 12.2053 12.8659 12.4423C24.9732 18.3959 27.9899 9.96058 28.0257 4.05527C28.0292 3.4812 28.483 3 29.0571 3Z" stroke="black" stroke-width="5"/>
</svg>
