<svg width="96" height="96" viewBox="0 0 96 96" fill="none" xmlns="http://www.w3.org/2000/svg">
<circle cx="48" cy="48" r="45.5" stroke="black" stroke-width="5"/>
<path d="M49.0002 50.5C50.8238 48.6764 50.8383 44.6204 50.4477 41.5343C50.2582 40.0372 48.9336 39 47.4245 39C44.8583 39 42.7929 42.1591 42.6103 44.7188C42.3352 48.5751 40.6822 52.7435 39.5002 55C33.9002 67.8 40.8335 69.6667 45.0002 69C54.5107 66.1469 57.9493 60.174 58.8008 55.9103C58.9876 54.9751 57.8644 54.6177 57.2363 55.3352C54.1733 58.8344 50.221 61.0391 47.7054 62.0619C47.1018 62.3074 46.4666 61.8684 46.4613 61.2169C46.4339 57.9107 46.9011 52.599 49.0002 50.5Z" fill="black"/>
<path d="M53.6523 28.9903C52.0246 30.3385 49.3213 30.6476 47.3081 30.5594C46.7881 30.5367 46.3021 30.2823 46.009 29.852C44.1619 27.1408 45.2918 24.8907 49.0002 23.5C49.799 23.2005 50.5313 23.0816 51.1909 23.0875C54.1044 23.1134 55.8962 27.1318 53.6523 28.9903Z" fill="black"/>
</svg>
