<svg width="101" height="71" viewBox="0 0 101 71" fill="none" xmlns="http://www.w3.org/2000/svg">
<path d="M24.0001 53.5C24.0001 67.9 43.6667 69.1667 53.5001 68V3C29.1001 3 23.6667 13.3333 24.0001 18.5M24.0001 53.5C24.0001 39.1 24.0001 24.1667 24.0001 18.5M24.0001 53.5C6.80006 53.5 2.83341 48.5 3.00009 46C3.00009 42.5 3.00009 33.6 3.00009 26C3.00009 18.4 17.0001 17.8333 24.0001 18.5" stroke="black" stroke-width="5"/>
<path d="M69 15C76.5 21.5 87 39 69 57" stroke="black" stroke-width="5"/>
<path d="M85 4.5C95 15.3333 109 43 85 67" stroke="black" stroke-width="5"/>
</svg>
