<svg xmlns="http://www.w3.org/2000/svg" xmlns:xlink="http://www.w3.org/1999/xlink" width="1920" height="6893" fill="none" viewBox="0 0 1920 6893">
  <path fill="#D9D9D9" d="M179 55h1600v700H179z"/>
  <g filter="url(#a)">
    <path fill="url(#b)" d="M179 55h1600v700H179z" shape-rendering="crispEdges"/>
  </g>
  <path fill="url(#c)" d="M1045 638.842h617.976v43.749H1045z" opacity=".3" style="mix-blend-mode:multiply"/>
  <path fill="url(#d)" d="M1113.76 189h563.236v480.939H1113.76z"/>
  <path fill="url(#e)" d="M1129 203.177h532.925v303.045H1129z"/>
  <path fill="url(#f)" d="M1119.19 684.573h377.451V705H1119.19z" opacity=".3" style="mix-blend-mode:multiply"/>
  <path fill="url(#g)" d="M1149.05 678.628h348.045v21.646H1149.05z"/>
  <path fill="url(#h)" d="M1522.43 684.421h110.988v18.14H1522.43z" opacity=".3" style="mix-blend-mode:multiply"/>
  <path fill="url(#i)" d="M1544 670.092h92.289v29.116H1544z"/>
  <g filter="url(#j)">
    <path fill="#052505" fill-rule="evenodd" d="m-89 1007.23 95-15.098c94-16.474 283-46.676 472-78.252 189-31.575 378-61.777 567 0 189 61.778 378 218.28 567 311.64 189 93.35 378 123.55 473 140.03l94 15.1V1474H-89v-466.77Z" clip-rule="evenodd"/>
    <path fill="#032E03" fill-rule="evenodd" d="m-237 1211.22 95-23c94-22 283-68 472-45s378 113 567 68 378-227.005 567-261.005 378 80.005 473 136.005l94 57v340H-237v-272Z" clip-rule="evenodd"/>
    <path fill="#044004" fill-rule="evenodd" d="m-74 1124 101.45 68c100.383 68 302.217 204 504.05 227 201.833 22 403.667-68 605.5-102 201.83-34 403.67-12 605.5 56 201.83 68 403.67 182 505.12 238l100.38 57v136H-74v-680Z" clip-rule="evenodd"/>
    <path fill="#075407" fill-rule="evenodd" d="m-30 1688.44 85.875-53.86c85.875-53.87 257.625-161.6 429.375-150.83 171.75 10.77 343.5 140.05 515.25 226.24 171.75 86.18 343.5 129.28 515.25 129.28s343.5-43.1 429.37-64.64l85.88-21.55V1947H-30v-258.56Z" clip-rule="evenodd"/>
    <path fill="#0D720D" fill-rule="evenodd" d="m-90 1858 85.822 20c86.856 20 258.5 60 431.178 40s344.322-100 517-140c172.68-40 344.32-40 517-70s344.32-90 431.18-120l85.82-30v540H-90v-240Z" clip-rule="evenodd"/>
    <path fill="#079F07" fill-rule="evenodd" d="M-139 1766h87.856c88.913 0 264.625 0 441.394 8.98 176.77 8.98 352.481 26.95 529.25 80.83 176.77 53.89 352.48 143.71 529.25 152.69 176.77 8.98 352.48-62.87 441.39-98.8l87.86-35.92V2251H-139v-485Z" clip-rule="evenodd"/>
    <path fill="#01FE01" fill-rule="evenodd" d="m-54 1943.79 90.958-6.97c90.959-6.96 272.875-20.89 454.792-13.92 181.917 6.96 363.833 34.81 545.75 90.51 181.92 55.71 363.83 139.26 545.75 181.04 181.92 41.77 363.83 41.77 454.79 41.77H2129V2278H-54v-334.21Z" clip-rule="evenodd"/>
  </g>
  <g filter="url(#k)" opacity=".5">
    <path fill="#0BFA00" fill-rule="evenodd" d="M1036.44 3049.84c57.88 20.4 10.32 118.78 45.72 168.91 29.97 42.43 117.52 24.89 127.19 75.93 10.76 56.85-32.54 118.95-86.15 140.71-51.53 20.91-107.07-11.65-152.387-43.9-35.232-25.07-50.757-65.35-60.368-107.52-9.607-42.14-12.662-84.93 7.82-123 26.959-50.09 64.519-130.05 118.175-111.13Zm510.07-159.15c38.95 7.09 69.53 31.61 93.59 62.96 23.28 30.33 34.89 65.26 34.15 103.45-1.07 55.82 16.25 145.95-39.13 154.34-60.33 9.14-63.72-96.48-113.85-131.16-31.65-21.89-85.03 9.09-107.61-22.02-30.86-42.54-49-107.62-16.34-148.81 32.69-41.24 97.31-28.21 149.19-18.76ZM386.652 3476.87c41.605-15.4 82.421 34.36 102.792 73.9 16.667 32.34-2.653 67.88-11.542 103.19-8.451 33.57-4.659 80.48-37.422 91.29-32.495 10.73-55.801-30.63-82.916-51.56-16.867-13.03-39.428-23.21-41.468-44.47-1.906-19.86 25.193-27.98 32.748-46.43 17.464-42.66-5.303-109.97 37.808-125.92ZM204.751 2438.85c35.312-6.62 75.345-39.5 101.378-14.75 25.97 24.68-7.203 65.94-9.959 101.65-4.038 52.33 35.492 122.15-9.412 149.35-44.321 26.84-92.679-31.12-133.877-62.55-28.011-21.37-54.327-47.74-56.752-82.87-2.119-30.7 22.258-55.06 45.868-74.8 17.422-14.57 40.429-11.84 62.754-16.03Zm460.899 375.06c47.743-11.85 94.623-55.28 136.966-30.28 53.696 31.72 104.331 101.1 80.2 158.54-23.898 56.88-111.813 26.86-168.448 51.51-51.133 22.25-82.989 96.51-136.642 81.28-55.878-15.87-86.277-85.6-82.395-143.47 3.226-48.08 58.757-68.61 98.46-96.02 21.643-14.94 46.322-15.22 71.859-21.56Zm805.4 575.09c53.79-.27 42.26 90.69 70.84 136.38 21.04 33.64 72.35 49.2 70.03 88.84-2.52 43.17-42.05 73.8-80.66 93.11-39.39 19.7-85.86 29.74-125.16 9.84-38.62-19.55-62.95-62.31-64.08-105.66-.96-36.44 40.81-53.9 59.09-85.41 27.07-46.69 16.06-136.82 69.94-137.1Zm-782.798 94.83c45.839 5.12 94.676-59.6 128.435-28.26 32.999 30.64 1.949 88.7-23.018 126.14-16.511 24.75-52.449 17.3-80.083 28.46-23.4 9.46-41.564 38.89-65.283 30.27-24.417-8.88-19.881-43.82-33.186-66.08-32.474-54.34-137.004-102.85-97.208-152.11 39.866-49.35 107.193 54.54 170.343 61.58Zm-558.873-701.61c60.034-12.57 129.812-53.8 174.501-11.81 46 43.21 38.163 126.56 4.357 179.84-27.461 43.28-94.027 17.37-141.612 36.49-39.638 15.93-62.65 70.61-104.581 62.43-48.73-9.51-90.453-52.96-98.12-101.98-7.306-46.71 30.075-85.52 63.57-118.92 27.76-27.68 63.502-38.01 101.885-46.05Zm1003.951 672.13c61.75-11.76 156.2-12.9 172.76 47.78 17.68 64.8-92.59 88.35-118.73 150.22-15.64 36.99 38.5 89.53 6.93 114.33-30.43 23.9-66.48-26.87-103.34-38.6-53.39-17-134.39 9.34-153.809-43.26-19.163-51.91 54.154-87.43 90.009-129.55 33.31-39.12 55.73-91.31 106.18-100.92Zm87.46-596.37c42.08-13.58 92.2-42.65 125.36-13.37 34.3 30.28 15.5 85.35 7.15 130.37-9.04 48.72-14.05 102.77-55.44 129.95-46.9 30.8-113.58 43.43-159.55 11.25-42.71-29.91-39.04-93.63-31.96-145.33 4.38-31.98 38.28-45.98 61.25-68.63 17.27-17.04 30.11-36.79 53.19-44.24Zm462.38-464.27c56.23-19.91 134.49 26.14 147.72 84.28 12.65 55.59-86.84 73.16-99.22 128.82-12.57 56.56 78.24 123.35 34.65 161.54-39.76 34.83-79.11-59.34-127.79-79.94-55.62-23.53-161.02 15.6-166.34-44.53-5.57-62.95 113.37-45.15 154.12-93.46 37.69-44.7 1.73-137.19 56.86-156.71Z" clip-rule="evenodd"/>
    <path fill="#0BFA00" fill-rule="evenodd" d="M1022.5 2767.62c31.62 6.22 71.66-15.03 91.3 10.56 19.57 25.5-6.17 59.39-13.6 90.68-7.27 30.63-5.41 63.51-28.17 85.23-37.38 35.67-89.243 96.95-131.213 66.84-43.812-31.42 22.889-101.04 10.353-153.53-12.913-54.06-112.041-91.73-79.731-136.93 31.75-44.42 97.532 26.61 151.061 37.15Zm-701.083 395.45c52.811 1.49 110.77-93.13 141.844-50.56 31.557 43.23-76.817 72.67-87.462 125.06-11.42 56.21 72.247 122.64 29.362 160.89-39.428 35.17-101.742-25.6-135.474-66.23-21.433-25.82 14.703-64.85 1.175-95.53-23.623-53.56-134.897-84.21-101.743-132.5 32.344-47.11 95.031 57.25 152.298 58.87Zm1037.093 2.57c54.1-11.42 95.94-97.16 142.57-67.4 42.16 26.9-10.65 93.23-29.43 139.61-13.54 33.45-32.93 60.06-60.74 83.05-46.68 38.58-99.58 125.96-147.8 89.31-51.36-39.05 22.51-117.79 25.55-182.26 1.38-29.13-34.83-62.71-13.08-82.12 22.32-19.91 53.67 25.98 82.93 19.81Zm385.21 3.37c38.89 1.03 11.47 75.16 36.81 104.68 28.15 32.77 103.37 18.96 106.38 62.06 2.82 40.46-62.2 42.23-97.74 61.72-40.32 22.12-73.65 68.09-118.22 56.76-50.77-12.91-108.37-60.42-98.93-111.97 9.49-51.76 95.33-33.21 132.37-70.59 27.13-27.38.8-103.68 39.33-102.66Zm-1068.417-47.17c62.164-10.46 115.111-98.24 167.97-63.93 50.53 32.79 13.761 113.52-2.057 171.6-14.666 53.84-33.363 108.79-81.863 136.49-52.511 29.99-116.985 33.16-172.266 8.64-57.399-25.47-110.897-73.91-115.802-136.45-4.488-57.22 44.711-105.17 94.62-133.63 33.73-19.24 71.095 23.72 109.398 17.28ZM471.174 2415.1c50.754-3.06 75.1 65.36 88.798 114.12 8.493 30.23-34.329 51.73-33.386 83.11 2.026 67.42 85.78 136.77 41.527 187.84-41.873 48.33-132.527 14.88-180.722-27.2-39.944-34.87-23.148-96.45-21.45-149.32 1.005-31.29 14.844-56.51 28.959-84.48 23.002-45.59 25.134-120.99 76.274-124.07Zm824.146 42.21c60.72 6.85 35.88 108.13 67.66 160.21 22.26 36.48 84.2 45.65 84.02 88.37-.2 47.01-37.93 99.5-84.83 103.94-44.21 4.19-49.78-72.29-91.59-87.22-56.61-20.2-143.15 46.39-171.3-6.62-25.88-48.71 72.7-72.3 106.03-116.27 35.69-47.1 31.21-149.05 90.01-142.41Zm-478.494-24.77c32.95-7.22 76.354-25.23 96.172 2.03 19.857 27.32-25.68 58.51-27.668 92.21-3.187 54.01 55.713 120.23 13.158 153.72-40.58 31.94-89.182-34.83-135.7-57.28-46.356-22.38-128.584-18.97-128.788-70.39-.213-53.92 83.083-55.52 128.172-85.19 19.029-12.52 32.396-30.22 54.654-35.1Zm865.774 368.48c41.09-21.14 70.24 55.7 115.95 62.22 38.69 5.51 74.41-51.48 107.3-30.41 36.64 23.47 48.16 79.25 32.31 119.83-15.23 39.02-61.77 52.6-102.83 60.75-31.93 6.34-61.98-5.97-89.99-22.49-28-16.51-52.96-36.94-63.16-67.81-13.43-40.63-37.68-102.49.42-122.09Z" clip-rule="evenodd"/>
  </g>
  <g filter="url(#l)" opacity=".5">
    <path fill="#0BFA00" fill-rule="evenodd" d="M1123.44 4417.84c57.88 20.4 10.32 118.78 45.72 168.91 29.97 42.43 117.52 24.89 127.19 75.93 10.76 56.85-32.54 118.95-86.15 140.71-51.53 20.91-107.07-11.65-152.39-43.9-35.23-25.07-50.75-65.35-60.365-107.52-9.607-42.14-12.662-84.93 7.825-123 26.95-50.09 64.51-130.05 118.17-111.13Zm510.07-159.15c38.95 7.09 69.53 31.61 93.59 62.96 23.28 30.33 34.89 65.26 34.15 103.45-1.07 55.82 16.25 145.95-39.13 154.34-60.33 9.14-63.72-96.48-113.85-131.16-31.65-21.89-85.03 9.09-107.61-22.02-30.86-42.54-49-107.62-16.34-148.81 32.69-41.24 97.31-28.21 149.19-18.76ZM473.652 4844.87c41.605-15.4 82.421 34.36 102.792 73.9 16.667 32.34-2.653 67.88-11.542 103.19-8.451 33.57-4.659 80.48-37.422 91.29-32.495 10.73-55.801-30.63-82.916-51.56-16.867-13.03-39.428-23.21-41.468-44.47-1.906-19.86 25.193-27.98 32.748-46.43 17.464-42.66-5.303-109.97 37.808-125.92ZM291.751 3806.85c35.312-6.62 75.345-39.5 101.378-14.75 25.97 24.68-7.203 65.94-9.959 101.65-4.038 52.33 35.492 122.15-9.412 149.35-44.321 26.84-92.679-31.12-133.877-62.55-28.011-21.37-54.327-47.74-56.752-82.87-2.119-30.7 22.258-55.06 45.868-74.8 17.422-14.57 40.429-11.84 62.754-16.03Zm460.899 375.06c47.743-11.85 94.623-55.28 136.966-30.28 53.696 31.72 104.331 101.1 80.2 158.54-23.898 56.88-111.813 26.86-168.448 51.51-51.133 22.25-82.989 96.51-136.642 81.28-55.878-15.87-86.277-85.6-82.395-143.47 3.226-48.08 58.757-68.61 98.46-96.02 21.643-14.94 46.322-15.22 71.859-21.56Zm805.4 575.09c53.79-.27 42.26 90.69 70.84 136.38 21.04 33.64 72.35 49.2 70.03 88.84-2.52 43.17-42.05 73.8-80.66 93.11-39.39 19.7-85.86 29.74-125.16 9.84-38.62-19.55-62.95-62.31-64.08-105.66-.96-36.44 40.81-53.9 59.09-85.41 27.07-46.69 16.06-136.82 69.94-137.1Zm-782.798 94.83c45.839 5.12 94.676-59.6 128.435-28.26 32.999 30.64 1.949 88.7-23.018 126.14-16.511 24.75-52.449 17.3-80.083 28.46-23.4 9.46-41.564 38.89-65.283 30.27-24.417-8.88-19.881-43.82-33.186-66.08-32.474-54.34-137.004-102.85-97.208-152.11 39.866-49.35 107.193 54.54 170.343 61.58Zm-558.873-701.61c60.034-12.57 129.812-53.8 174.501-11.81 46 43.21 38.163 126.56 4.357 179.84-27.461 43.28-94.027 17.37-141.612 36.49-39.638 15.93-62.65 70.61-104.581 62.43-48.73-9.51-90.453-52.96-98.12-101.98-7.306-46.71 30.075-85.52 63.57-118.92 27.76-27.68 63.502-38.01 101.885-46.05Zm1003.951 672.13c61.75-11.76 156.2-12.9 172.76 47.78 17.68 64.8-92.59 88.35-118.73 150.22-15.64 36.99 38.5 89.53 6.93 114.33-30.43 23.9-66.48-26.87-103.34-38.6-53.39-17-134.39 9.34-153.81-43.26-19.16-51.91 54.15-87.43 90.01-129.55 33.31-39.12 55.73-91.31 106.18-100.92Zm87.46-596.37c42.08-13.58 92.2-42.65 125.36-13.37 34.3 30.28 15.5 85.35 7.15 130.37-9.04 48.72-14.05 102.77-55.44 129.95-46.9 30.8-113.58 43.43-159.55 11.25-42.71-29.91-39.04-93.63-31.96-145.33 4.38-31.98 38.28-45.98 61.25-68.63 17.27-17.04 30.11-36.79 53.19-44.24Zm462.38-464.27c56.23-19.91 134.49 26.14 147.72 84.28 12.65 55.59-86.84 73.16-99.22 128.82-12.57 56.56 78.24 123.35 34.65 161.54-39.76 34.83-79.11-59.34-127.79-79.94-55.62-23.53-161.02 15.6-166.34-44.53-5.57-62.95 113.37-45.15 154.12-93.46 37.69-44.7 1.73-137.19 56.86-156.71Z" clip-rule="evenodd"/>
    <path fill="#0BFA00" fill-rule="evenodd" d="M1109.5 4135.62c31.62 6.22 71.66-15.03 91.3 10.56 19.57 25.5-6.17 59.39-13.6 90.68-7.27 30.63-5.41 63.51-28.17 85.23-37.38 35.67-89.24 96.95-131.21 66.84-43.815-31.42 22.89-101.04 10.35-153.53-12.91-54.06-112.041-91.73-79.731-136.93 31.75-44.42 97.531 26.61 151.061 37.15Zm-701.083 395.45c52.811 1.49 110.77-93.13 141.844-50.56 31.557 43.23-76.817 72.67-87.462 125.06-11.42 56.21 72.247 122.64 29.362 160.89-39.428 35.17-101.742-25.6-135.474-66.23-21.433-25.82 14.703-64.85 1.175-95.53-23.623-53.56-134.897-84.21-101.743-132.5 32.344-47.11 95.031 57.25 152.298 58.87Zm1037.093 2.57c54.1-11.42 95.94-97.16 142.57-67.4 42.16 26.9-10.65 93.23-29.43 139.61-13.54 33.45-32.93 60.06-60.74 83.05-46.68 38.58-99.58 125.96-147.8 89.31-51.36-39.05 22.51-117.79 25.55-182.26 1.38-29.13-34.83-62.71-13.08-82.12 22.32-19.91 53.67 25.98 82.93 19.81Zm385.21 3.37c38.89 1.03 11.47 75.16 36.81 104.68 28.15 32.77 103.37 18.96 106.38 62.06 2.82 40.46-62.2 42.23-97.74 61.72-40.32 22.12-73.65 68.09-118.22 56.76-50.77-12.91-108.37-60.42-98.93-111.97 9.49-51.76 95.33-33.21 132.37-70.59 27.13-27.38.8-103.68 39.33-102.66Zm-1068.417-47.17c62.164-10.46 115.111-98.24 167.97-63.93 50.53 32.79 13.761 113.52-2.057 171.6-14.666 53.84-33.363 108.79-81.863 136.49-52.511 29.99-116.985 33.16-172.266 8.64-57.399-25.47-110.897-73.91-115.802-136.45-4.488-57.22 44.711-105.17 94.62-133.63 33.73-19.24 71.095 23.72 109.398 17.28ZM558.174 3783.1c50.754-3.06 75.1 65.36 88.798 114.12 8.493 30.23-34.329 51.73-33.386 83.11 2.026 67.42 85.78 136.77 41.527 187.84-41.873 48.33-132.527 14.88-180.722-27.2-39.944-34.87-23.148-96.45-21.45-149.32 1.005-31.29 14.844-56.51 28.959-84.48 23.002-45.59 25.134-120.99 76.274-124.07Zm824.146 42.21c60.72 6.85 35.88 108.13 67.66 160.21 22.26 36.48 84.2 45.65 84.02 88.37-.2 47.01-37.93 99.5-84.83 103.94-44.21 4.19-49.78-72.29-91.59-87.22-56.61-20.2-143.15 46.39-171.3-6.62-25.88-48.71 72.7-72.3 106.03-116.27 35.69-47.1 31.21-149.05 90.01-142.41Zm-478.494-24.77c32.95-7.22 76.354-25.23 96.172 2.03 19.862 27.32-25.68 58.51-27.668 92.21-3.187 54.01 55.71 120.23 13.158 153.72-40.58 31.94-89.182-34.83-135.7-57.28-46.356-22.38-128.584-18.97-128.788-70.39-.213-53.92 83.083-55.52 128.172-85.19 19.029-12.52 32.396-30.22 54.654-35.1Zm865.774 368.48c41.09-21.14 70.24 55.7 115.95 62.22 38.69 5.51 74.41-51.48 107.3-30.41 36.64 23.47 48.16 79.25 32.31 119.83-15.23 39.02-61.77 52.6-102.83 60.75-31.93 6.34-61.98-5.97-89.99-22.49-28-16.51-52.96-36.94-63.16-67.81-13.43-40.63-37.68-102.49.42-122.09Z" clip-rule="evenodd"/>
  </g>
  <g filter="url(#m)">
    <path fill="#052505" fill-rule="evenodd" d="m-89 5408.33 95-16.75c94-18.27 283-51.77 472-86.79s378-68.51 567 0c189 68.52 378 242.09 567 345.63 189 103.53 378 137.03 473 155.3l94 16.75V5926H-89v-517.67Z" clip-rule="evenodd"/>
    <path fill="#032E03" fill-rule="evenodd" d="m-237 5720.19 95-31.87c94-30.47 283-94.2 472-62.34 189 31.87 378 156.55 567 94.21 189-62.34 378-314.48 567-361.58 189-47.1 378 110.83 473 188.41l94 78.96V6097H-237v-376.81Z" clip-rule="evenodd"/>
    <path fill="#044004" fill-rule="evenodd" d="m-74 5628 95 79c94 79 283 237 472 263.72 189 25.56 378-79 567-118.5s378-13.94 567 65.06 378 211.44 473 276.5l94 66.22v158H-74v-790Z" clip-rule="evenodd"/>
    <path fill="#075407" fill-rule="evenodd" d="m-50 6186.54 88.5-78.02C127 6030.51 304 5874.49 481 5890.09c177 15.6 354 202.83 531 327.65 177 124.82 354 187.23 531 187.23s354-62.41 442.5-93.61l88.5-31.21V6561H-50v-374.46Z" clip-rule="evenodd"/>
    <path fill="#0D720D" fill-rule="evenodd" d="m-90 6362.67 87.067 29.11c88.116 29.11 262.25 87.33 437.433 58.22s349.317-145.56 524.5-203.78c175.18-58.22 349.32-58.22 524.5-101.89 175.18-43.66 349.32-131 437.43-174.66L2008 5926v786H-90v-349.33Z" clip-rule="evenodd"/>
    <path fill="#079F07" fill-rule="evenodd" d="M-139 6151h87.69c88.745 0 264.124 0 440.56 13.22 176.435 13.22 351.814 39.67 528.25 119 176.44 79.34 351.81 211.56 528.25 224.78 176.44 13.22 351.81-92.56 440.56-145.44l87.69-52.89V6865H-139v-714Z" clip-rule="evenodd"/>
    <path fill="#01FE01" fill-rule="evenodd" d="m-30 6512.85 89.958-7.9c89.959-7.9 269.875-23.7 449.792-15.8 179.917 7.9 359.833 39.5 539.75 102.69 179.92 63.19 359.83 157.98 539.75 205.37 179.92 47.4 359.83 47.4 449.79 47.4H2129V6892H-30v-379.15Z" clip-rule="evenodd"/>
  </g>
  <defs>
    <pattern id="c" width="1" height="1" patternContentUnits="objectBoundingBox">
      <use xlink:href="#n" transform="scale(.00098 .01389)"/>
    </pattern>
    <pattern id="d" width="1" height="1" patternContentUnits="objectBoundingBox">
      <use xlink:href="#o" transform="scale(.00107 .00127)"/>
    </pattern>
    <pattern id="e" width="1" height="1" patternContentUnits="objectBoundingBox">
      <use xlink:href="#p" transform="matrix(.00038 0 0 .00067 -.005 0)"/>
    </pattern>
    <pattern id="f" width="1" height="1" patternContentUnits="objectBoundingBox">
      <use xlink:href="#q" transform="scale(.0016 .02941)"/>
    </pattern>
    <pattern id="g" width="1" height="1" patternContentUnits="objectBoundingBox">
      <use xlink:href="#r" transform="scale(.00173 .02778)"/>
    </pattern>
    <pattern id="h" width="1" height="1" patternContentUnits="objectBoundingBox">
      <use xlink:href="#s" transform="scale(.00543 .03333)"/>
    </pattern>
    <pattern id="i" width="1" height="1" patternContentUnits="objectBoundingBox">
      <use xlink:href="#t" transform="scale(.00654 .02083)"/>
    </pattern>
    <filter id="a" width="1710" height="810" x="124" y="0" color-interpolation-filters="sRGB" filterUnits="userSpaceOnUse">
      <feFlood flood-opacity="0" result="BackgroundImageFix"/>
      <feColorMatrix in="SourceAlpha" result="hardAlpha" values="0 0 0 0 0 0 0 0 0 0 0 0 0 0 0 0 0 0 127 0"/>
      <feMorphology in="SourceAlpha" operator="dilate" radius="5" result="effect1_dropShadow_158_444"/>
      <feOffset/>
      <feGaussianBlur stdDeviation="25"/>
      <feComposite in2="hardAlpha" operator="out"/>
      <feColorMatrix values="0 0 0 0 0.027451 0 0 0 0 0.988235 0 0 0 0 0 0 0 0 0.2 0"/>
      <feBlend in2="BackgroundImageFix" result="effect1_dropShadow_158_444"/>
      <feBlend in="SourceGraphic" in2="effect1_dropShadow_158_444" result="shape"/>
    </filter>
    <filter id="j" width="2785" height="1600" x="-337" y="778" color-interpolation-filters="sRGB" filterUnits="userSpaceOnUse">
      <feFlood flood-opacity="0" result="BackgroundImageFix"/>
      <feColorMatrix in="SourceAlpha" result="hardAlpha" values="0 0 0 0 0 0 0 0 0 0 0 0 0 0 0 0 0 0 127 0"/>
      <feOffset/>
      <feGaussianBlur stdDeviation="50"/>
      <feComposite in2="hardAlpha" operator="out"/>
      <feColorMatrix values="0 0 0 0 0.00392157 0 0 0 0 0.996078 0 0 0 0 0.00392157 0 0 0 0.25 0"/>
      <feBlend in2="BackgroundImageFix" result="effect1_dropShadow_158_444"/>
      <feBlend in="SourceGraphic" in2="effect1_dropShadow_158_444" result="shape"/>
      <feGaussianBlur result="effect2_foregroundBlur_158_444" stdDeviation="10"/>
    </filter>
    <filter id="k" width="2082.1" height="1484" x="-87" y="2339" color-interpolation-filters="sRGB" filterUnits="userSpaceOnUse">
      <feFlood flood-opacity="0" result="BackgroundImageFix"/>
      <feColorMatrix in="SourceAlpha" result="hardAlpha" values="0 0 0 0 0 0 0 0 0 0 0 0 0 0 0 0 0 0 127 0"/>
      <feOffset/>
      <feGaussianBlur stdDeviation="25"/>
      <feComposite in2="hardAlpha" operator="out"/>
      <feColorMatrix values="0 0 0 0 0.0313726 0 0 0 0 0.988235 0 0 0 0 0 0 0 0 1 0"/>
      <feBlend in2="BackgroundImageFix" result="effect1_dropShadow_158_444"/>
      <feBlend in="SourceGraphic" in2="effect1_dropShadow_158_444" result="shape"/>
      <feGaussianBlur result="effect2_foregroundBlur_158_444" stdDeviation="10"/>
    </filter>
    <filter id="l" width="2082.1" height="1484" x="0" y="3707" color-interpolation-filters="sRGB" filterUnits="userSpaceOnUse">
      <feFlood flood-opacity="0" result="BackgroundImageFix"/>
      <feColorMatrix in="SourceAlpha" result="hardAlpha" values="0 0 0 0 0 0 0 0 0 0 0 0 0 0 0 0 0 0 127 0"/>
      <feOffset/>
      <feGaussianBlur stdDeviation="25"/>
      <feComposite in2="hardAlpha" operator="out"/>
      <feColorMatrix values="0 0 0 0 0.0313726 0 0 0 0 0.988235 0 0 0 0 0 0 0 0 1 0"/>
      <feBlend in2="BackgroundImageFix" result="effect1_dropShadow_158_444"/>
      <feBlend in="SourceGraphic" in2="effect1_dropShadow_158_444" result="shape"/>
      <feGaussianBlur result="effect2_foregroundBlur_158_444" stdDeviation="10"/>
    </filter>
    <filter id="m" width="2631" height="1827" x="-337" y="5165" color-interpolation-filters="sRGB" filterUnits="userSpaceOnUse">
      <feFlood flood-opacity="0" result="BackgroundImageFix"/>
      <feColorMatrix in="SourceAlpha" result="hardAlpha" values="0 0 0 0 0 0 0 0 0 0 0 0 0 0 0 0 0 0 127 0"/>
      <feOffset/>
      <feGaussianBlur stdDeviation="50"/>
      <feComposite in2="hardAlpha" operator="out"/>
      <feColorMatrix values="0 0 0 0 0.00392157 0 0 0 0 0.996078 0 0 0 0 0.00392157 0 0 0 0.25 0"/>
      <feBlend in2="BackgroundImageFix" result="effect1_dropShadow_158_444"/>
      <feBlend in="SourceGraphic" in2="effect1_dropShadow_158_444" result="shape"/>
      <feGaussianBlur result="effect2_foregroundBlur_158_444" stdDeviation="10"/>
    </filter>
    <linearGradient id="b" x1="979" x2="979" y1="55" y2="755" gradientUnits="userSpaceOnUse">
      <stop stop-color="#04E000"/>
      <stop offset=".49" stop-color="#73F770" stop-opacity=".85"/>
      <stop offset="1" stop-color="#6CFF69" stop-opacity=".24"/>
    </linearGradient>
  </defs>
</svg>
