<svg xmlns="http://www.w3.org/2000/svg" width="112" height="87" fill="none" viewBox="0 0 112 87">
  <path fill="#fff" d="M111.003 35.46v3.083a4.625 4.625 0 0 1-4.626 4.625h-1.541l-5.032 35.226a9.25 9.25 0 0 1-9.158 7.942h-70.29a9.25 9.25 0 0 1-9.157-7.942L6.167 43.168H4.625A4.625 4.625 0 0 1 0 38.543V35.46a4.625 4.625 0 0 1 4.625-4.625h12.978L38.18 2.54a6.167 6.167 0 0 1 9.974 7.255l-15.302 21.04H78.15L62.847 9.795a6.167 6.167 0 0 1 9.975-7.255L93.4 30.835h12.977a4.625 4.625 0 0 1 4.626 4.625ZM60.126 69.377V47.793a4.625 4.625 0 1 0-9.25 0v21.584a4.625 4.625 0 1 0 9.25 0Zm21.584 0V47.793a4.625 4.625 0 1 0-9.25 0v21.584a4.625 4.625 0 1 0 9.25 0Zm-43.167 0V47.793a4.625 4.625 0 1 0-9.25 0v21.584a4.625 4.625 0 1 0 9.25 0Z"/>
</svg>
