<svg width="1920" height="1844" viewBox="0 0 1920 1844" fill="none" xmlns="http://www.w3.org/2000/svg">
<g filter="url(#filter0_df_155_4)">
<path fill-rule="evenodd" clip-rule="evenodd" d="M-274.309 210.477L-162.817 197.568C-52.4999 183.484 169.309 157.665 391.118 130.673C612.926 103.68 834.735 77.8613 1056.54 130.673C1278.35 183.484 1500.16 317.274 1721.97 397.078C1943.78 476.882 2165.59 502.701 2277.08 516.784L2387.4 529.694V609.498H2277.08C2165.59 609.498 1943.78 609.498 1721.97 609.498C1500.16 609.498 1278.35 609.498 1056.54 609.498C834.735 609.498 612.926 609.498 391.118 609.498C169.309 609.498 -52.4999 609.498 -162.817 609.498H-274.309V210.477Z" fill="#052505"/>
<path fill-rule="evenodd" clip-rule="evenodd" d="M-448 491.058L-336.509 464.066C-226.191 438.247 -4.38255 384.262 217.426 411.254C439.235 438.247 661.044 543.87 882.852 491.058C1104.66 438.247 1326.47 224.653 1548.28 184.751C1770.09 144.849 1991.9 278.638 2103.39 344.359L2213.7 411.254V810.275H2103.39C1991.9 810.275 1770.09 810.275 1548.28 810.275C1326.47 810.275 1104.66 810.275 882.852 810.275C661.044 810.275 439.235 810.275 217.426 810.275C-4.38255 810.275 -226.191 810.275 -336.509 810.275H-448V491.058Z" fill="#032E03"/>
<path fill-rule="evenodd" clip-rule="evenodd" d="M-256.705 388.703L-145.214 468.508C-34.8964 548.312 186.912 707.92 408.721 734.913C630.53 760.732 852.339 655.108 1074.15 615.206C1295.96 575.304 1517.76 601.123 1739.57 680.928C1961.38 760.732 2183.19 894.521 2294.68 960.242L2405 1027.14V1186.75H2294.68C2183.19 1186.75 1961.38 1186.75 1739.57 1186.75C1517.76 1186.75 1295.96 1186.75 1074.15 1186.75C852.339 1186.75 630.53 1186.75 408.721 1186.75C186.912 1186.75 -34.8964 1186.75 -145.214 1186.75H-256.705V388.703Z" fill="#044004"/>
<path fill-rule="evenodd" clip-rule="evenodd" d="M-100.617 1051.13L-4.18712 987.912C92.2429 924.695 285.103 798.261 477.963 810.905C670.823 823.548 863.683 975.268 1056.54 1076.42C1249.4 1177.56 1442.26 1228.14 1635.12 1228.14C1827.98 1228.14 2020.84 1177.56 2117.27 1152.28L2213.7 1126.99V1354.57H2117.27C2020.84 1354.57 1827.98 1354.57 1635.12 1354.57C1442.26 1354.57 1249.4 1354.57 1056.54 1354.57C863.683 1354.57 670.823 1354.57 477.963 1354.57C285.103 1354.57 92.2429 1354.57 -4.18712 1354.57H-100.617V1051.13Z" fill="#075407"/>
<path fill-rule="evenodd" clip-rule="evenodd" d="M-275.482 1250.12L-178.074 1273.59C-79.4927 1297.06 115.323 1344.01 311.313 1320.53C507.303 1297.06 702.119 1203.18 898.109 1156.23C1094.1 1109.29 1288.91 1109.29 1484.9 1074.08C1680.89 1038.87 1875.71 968.457 1974.29 933.25L2071.7 898.042V1531.78H1974.29C1875.71 1531.78 1680.89 1531.78 1484.9 1531.78C1288.91 1531.78 1094.1 1531.78 898.109 1531.78C702.119 1531.78 507.303 1531.78 311.313 1531.78C115.323 1531.78 -79.4927 1531.78 -178.074 1531.78H-275.482V1250.12Z" fill="#0D720D"/>
<path fill-rule="evenodd" clip-rule="evenodd" d="M-332.988 1142.15H-235.58C-136.999 1142.15 57.8176 1142.15 253.807 1152.69C449.797 1163.23 644.613 1184.31 840.603 1247.55C1036.59 1310.8 1231.41 1416.2 1427.4 1426.74C1623.39 1437.29 1818.2 1352.96 1916.79 1310.8L2014.19 1268.64V1711.34H1916.79C1818.2 1711.34 1623.39 1711.34 1427.4 1711.34C1231.41 1711.34 1036.59 1711.34 840.603 1711.34C644.613 1711.34 449.797 1711.34 253.807 1711.34C57.8176 1711.34 -136.999 1711.34 -235.58 1711.34H-332.988V1142.15Z" fill="#079F07"/>
<path fill-rule="evenodd" clip-rule="evenodd" d="M-18.4648 1350.8L79.3344 1342.63C177.134 1334.45 372.732 1318.11 568.331 1326.28C763.929 1334.45 959.528 1367.14 1155.13 1432.51C1350.72 1497.88 1546.32 1595.94 1741.92 1644.97C1937.52 1694 2133.12 1694 2230.92 1694H2328.72V1743.03H2230.92C2133.12 1743.03 1937.52 1743.03 1741.92 1743.03C1546.32 1743.03 1350.72 1743.03 1155.13 1743.03C959.528 1743.03 763.929 1743.03 568.331 1743.03C372.732 1743.03 177.134 1743.03 79.3344 1743.03H-18.4648V1350.8Z" fill="#01FE01"/>
</g>
<defs>
<filter id="filter0_df_155_4" x="-548" y="0" width="3053" height="1843.03" filterUnits="userSpaceOnUse" color-interpolation-filters="sRGB">
<feFlood flood-opacity="0" result="BackgroundImageFix"/>
<feColorMatrix in="SourceAlpha" type="matrix" values="0 0 0 0 0 0 0 0 0 0 0 0 0 0 0 0 0 0 127 0" result="hardAlpha"/>
<feOffset/>
<feGaussianBlur stdDeviation="50"/>
<feComposite in2="hardAlpha" operator="out"/>
<feColorMatrix type="matrix" values="0 0 0 0 0.00392157 0 0 0 0 0.996078 0 0 0 0 0.00392157 0 0 0 0.25 0"/>
<feBlend mode="normal" in2="BackgroundImageFix" result="effect1_dropShadow_155_4"/>
<feBlend mode="normal" in="SourceGraphic" in2="effect1_dropShadow_155_4" result="shape"/>
<feGaussianBlur stdDeviation="10" result="effect2_foregroundBlur_155_4"/>
</filter>
</defs>
</svg>
