<svg xmlns="http://www.w3.org/2000/svg" width="125" height="72" fill="none" viewBox="0 0 125 72">
  <path fill="#fff" d="M67.35 71.48c-3.973 0-7.08-1.107-9.32-3.32s-3.36-5.373-3.36-9.48V43h6.48v15.44c0 2.667.547 4.587 1.64 5.76s2.627 1.76 4.6 1.76c1.973 0 3.507-.587 4.6-1.76 1.093-1.173 1.64-3.093 1.64-5.76V43h6.4v15.68c0 4.107-1.12 7.267-3.36 9.48-2.24 2.213-5.347 3.32-9.32 3.32ZM88.433 71V43h12.12c2.507 0 4.667.413 6.48 1.24 1.814.8 3.214 1.96 4.2 3.48.987 1.52 1.48 3.333 1.48 5.44 0 2.08-.493 3.88-1.48 5.4-.986 1.52-2.386 2.693-4.2 3.52-1.813.8-3.973 1.2-6.48 1.2h-8.52l2.88-2.92V71h-6.48Zm6.48-9.92L92.033 58h8.16c2 0 3.494-.427 4.48-1.28.987-.853 1.48-2.04 1.48-3.56 0-1.547-.493-2.747-1.48-3.6-.986-.853-2.48-1.28-4.48-1.28h-8.16l2.88-3.08v15.88ZM54.008 39V11h6.48v22.72h14.04V39h-20.52Zm28.626 0-12.08-28h7l10.56 24.8h-4.12L94.714 11h6.44l-12.12 28h-6.4Zm18.858 0V11h6.48v22.72h14.04V39h-20.52Zm-73.837-1.547L48.9 58.943c1.468 1.485 1.468 3.887 0 5.356l-3.53 3.571a3.703 3.703 0 0 1-5.296 0L25 52.653 9.942 67.886a3.703 3.703 0 0 1-5.295 0l-3.546-3.571c-1.468-1.485-1.468-3.887 0-5.357l21.244-21.49a3.708 3.708 0 0 1 5.31-.015Zm-5.31-30.339L1.1 28.604c-1.468 1.485-1.468 3.887 0 5.357l3.53 3.57a3.703 3.703 0 0 0 5.296 0L24.984 22.3l15.058 15.233a3.703 3.703 0 0 0 5.295 0l3.53-3.571c1.469-1.486 1.469-3.888 0-5.357L27.625 7.114c-1.437-1.485-3.811-1.485-5.28 0Z"/>
</svg>
