<svg width="65" height="39" viewBox="0 0 65 39" fill="none" xmlns="http://www.w3.org/2000/svg">
<path d="M62.7475 2.58666C63.1885 1.09665 62.7475 0 60.6257 0H53.6048C51.8167 0 50.9943 0.941689 50.5532 1.99066C50.5532 1.99066 46.9772 10.7043 41.923 16.3544C40.29 17.9875 39.539 18.5119 38.645 18.5119C38.204 18.5119 37.5245 17.9875 37.5245 16.4974V2.58666C37.5245 0.798647 37.0239 0 35.5458 0H24.5078C23.3873 0 22.7197 0.834408 22.7197 1.60922C22.7197 3.30187 25.2468 3.69524 25.509 8.46328V18.8099C25.509 21.0748 25.1038 21.492 24.2098 21.492C21.8257 21.492 16.0326 12.7426 12.5996 2.72971C11.9082 0.786728 11.2287 0 9.42881 0H2.40786C0.405284 0 0 0.941689 0 1.99066C0 3.8502 2.38402 13.0883 11.0976 25.2945C16.9027 33.6266 25.0799 38.1444 32.5181 38.1444C36.9881 38.1444 37.5364 37.1431 37.5364 35.4147C37.5364 27.452 37.1312 26.7011 39.3721 26.7011C40.4092 26.7011 42.1972 27.2255 46.3692 31.2426C51.1373 36.0107 51.924 38.1444 54.5941 38.1444H61.6151C63.6177 38.1444 64.6309 37.1431 64.0468 35.1643C62.7117 31.0042 53.6882 22.4456 53.2829 21.8734C52.2459 20.5384 52.5439 19.9424 53.2829 18.7503C53.2948 18.7384 61.8654 6.67526 62.7475 2.58666Z" fill="white"/>
</svg>
